<svg width="40" height="41" viewBox="0 0 40 41" fill="none" xmlns="http://www.w3.org/2000/svg">
<path d="M20.044 40.4435H19.956C8.95238 40.4435 0 31.4885 0 20.4817V20.3937C0 9.38679 8.95238 0.431763 19.956 0.431763H20.044C31.0476 0.431763 40 9.38679 40 20.3937V20.4817C40 31.4885 31.0476 40.4435 20.044 40.4435ZM19.956 1.78612C9.69841 1.78612 1.35396 10.133 1.35396 20.3937V20.4817C1.35396 30.7423 9.69841 39.0892 19.956 39.0892H20.044C30.3016 39.0892 38.646 30.7423 38.646 20.4817V20.3937C38.646 10.133 30.3016 1.78612 20.044 1.78612H19.956Z" fill="#383D38"/>
<path d="M22.691 15.9514V20.162H27.8983L27.0738 25.8341H22.691V38.9023C21.8123 39.0242 20.9133 39.0878 20.0007 39.0878C18.9473 39.0878 17.9129 39.0039 16.9055 38.8413V25.8341H12.103V20.162H16.9055V15.0101C16.9055 11.8138 19.4957 9.22156 22.6924 9.22156V9.22427C22.7018 9.22427 22.71 9.22156 22.7194 9.22156H27.8997V14.127H24.5148C23.5088 14.127 22.6924 14.9437 22.6924 15.95L22.691 15.9514Z" fill="#383D38"/>
</svg>
