<svg width="40" height="41" viewBox="0 0 40 41" fill="none" xmlns="http://www.w3.org/2000/svg">
<path d="M20.044 40.0118H19.956C8.95238 40.0118 0 31.0568 0 20.0499V19.9619C0 8.955 8.95238 0 19.956 0H20.044C31.0476 0 40 8.955 40 19.9619V20.0499C40 31.0568 31.0476 40.0118 20.044 40.0118ZM19.956 1.35436C9.69841 1.35436 1.35396 9.70125 1.35396 19.9619V20.0499C1.35396 30.3105 9.69841 38.6574 19.956 38.6574H20.044C30.3016 38.6574 38.646 30.3105 38.646 20.0499V19.9619C38.646 9.70125 30.3016 1.35436 20.044 1.35436H19.956Z" fill="#383D38"/>
<path d="M25.9798 8.54193H14.0216C10.7179 8.54193 8.03032 11.2303 8.03032 14.535V25.4781C8.03032 28.7828 10.7179 31.4712 14.0216 31.4712H25.9798C29.2834 31.4712 31.971 28.7828 31.971 25.4781V14.535C31.971 11.2303 29.2834 8.54193 25.9798 8.54193ZM10.1439 14.535C10.1439 12.3964 11.8837 10.6561 14.0216 10.6561H25.9798C28.1177 10.6561 29.8575 12.3964 29.8575 14.535V25.4781C29.8575 27.6167 28.1177 29.357 25.9798 29.357H14.0216C11.8837 29.357 10.1439 27.6167 10.1439 25.4781V14.535Z" fill="#383D38"/>
<path d="M20.0007 25.5798C23.0728 25.5798 25.5736 23.0796 25.5736 20.0052C25.5736 16.9309 23.0742 14.4307 20.0007 14.4307C16.9272 14.4307 14.4278 16.9309 14.4278 20.0052C14.4278 23.0796 16.9272 25.5798 20.0007 25.5798ZM20.0007 16.5462C21.9084 16.5462 23.4601 18.0983 23.4601 20.0066C23.4601 21.9149 21.9084 23.467 20.0007 23.467C18.093 23.467 16.5413 21.9149 16.5413 20.0066C16.5413 18.0983 18.093 16.5462 20.0007 16.5462Z" fill="#383D38"/>
<path d="M26.0895 15.3313C26.9167 15.3313 27.591 14.6583 27.591 13.8294C27.591 13.0005 26.9181 12.3274 26.0895 12.3274C25.2608 12.3274 24.5879 13.0005 24.5879 13.8294C24.5879 14.6583 25.2608 15.3313 26.0895 15.3313Z" fill="#383D38"/>
</svg>
