<svg width="40" height="41" viewBox="0 0 40 41" fill="none" xmlns="http://www.w3.org/2000/svg">
<path d="M20.044 40.0118H19.956C8.95239 40.0118 0 31.0568 0 20.0499V19.9619C0 8.95502 8.95239 0 19.956 0H20.044C31.0476 0 40 8.95502 40 19.9619V20.0499C40 31.0568 31.0476 40.0118 20.044 40.0118ZM19.956 1.35436C9.69842 1.35436 1.35396 9.70127 1.35396 19.9619V20.0499C1.35396 30.3105 9.69842 38.6574 19.956 38.6574H20.044C30.3016 38.6574 38.646 30.3105 38.646 20.0499V19.9619C38.646 9.70127 30.3016 1.35436 20.044 1.35436H19.956Z" fill="#383D38"/>
<path d="M9.89338 13.5259C9.38429 13.0533 9.13112 12.4682 9.13112 11.7721C9.13112 11.0759 9.38565 10.4651 9.89338 9.99105C10.4025 9.51838 11.0578 9.28137 11.8607 9.28137C12.6636 9.28137 13.2932 9.51838 13.8009 9.99105C14.31 10.4637 14.5632 11.0583 14.5632 11.7721C14.5632 12.4858 14.3087 13.0533 13.8009 13.5259C13.2918 13.9986 12.646 14.2356 11.8607 14.2356C11.0754 14.2356 10.4025 13.9986 9.89338 13.5259ZM14.1353 16.2374V30.729H9.5576V16.2374H14.1353Z" fill="#383D38"/>
<path d="M29.3741 17.6689C30.372 18.7524 30.8702 20.2395 30.8702 22.1329V30.473H26.5227V22.7207C26.5227 21.7659 26.2749 21.0237 25.7807 20.4955C25.2865 19.9673 24.6204 19.7018 23.7864 19.7018C22.9523 19.7018 22.2861 19.9659 21.792 20.4955C21.2978 21.0237 21.05 21.7659 21.05 22.7207V30.473H16.6767V16.1968H21.05V18.0901C21.4927 17.459 22.0899 16.9606 22.8399 16.5936C23.59 16.2265 24.4335 16.0437 25.3718 16.0437C27.0426 16.0437 28.3776 16.5854 29.3741 17.6689Z" fill="#383D38"/>
</svg>
