<svg width="40" height="41" viewBox="0 0 40 41" fill="none" xmlns="http://www.w3.org/2000/svg">
<path d="M20.044 40.0118H19.956C8.95238 40.0118 0 31.0568 0 20.0499V19.9619C0 8.955 8.95238 0 19.956 0H20.044C31.0476 0 40 8.955 40 19.9619V20.0499C40 31.0568 31.0476 40.0118 20.044 40.0118ZM19.956 1.35436C9.69841 1.35436 1.35396 9.70125 1.35396 19.9619V20.0499C1.35396 30.3105 9.69841 38.6574 19.956 38.6574H20.044C30.3016 38.6574 38.646 30.3105 38.646 20.0499V19.9619C38.646 9.70125 30.3016 1.35436 20.044 1.35436H19.956Z" fill="#383D38"/>
<path d="M8.51506 9.42902L17.4268 21.3474L8.45954 31.0378H10.4783L18.3299 22.5541L24.6732 31.0378H31.5418L22.1291 18.4491L30.4763 9.42902H28.4575L21.2274 17.2423L15.385 9.42902H8.5164H8.51506ZM11.4829 10.9161H14.6377L28.5713 29.5507H25.4165L11.4829 10.9161Z" fill="#383D38"/>
</svg>
